<svg width="103" height="83" viewBox="0 0 103 83" fill="none" xmlns="http://www.w3.org/2000/svg">
<path d="M18.0961 81.9428C8.46518 81.9428 0.449242 72.3564 0.0380957 60.1243C-0.226213 52.5574 0.830784 43.9382 4.91217 35.8309C17.0382 11.5945 35.4784 25.8177 46.1959 14.3262C78.025 -19.7819 113.641 13.984 98.6666 43.227C96.9342 46.6405 96.6699 49.4852 97.3167 52.0454C101.075 66.8092 92.8535 81.9996 80.6387 81.9996L18.0961 81.9428Z" fill="#0D0D0D"/>
<path d="M81.3233 15.9718L53.2119 11.3008L49.3595 34.4855L77.4709 39.1565L81.3233 15.9718Z" fill="#FDD561"/>
<path d="M80.6072 40.2145H44.4033V76.9174C44.4073 78.1622 44.9035 79.3549 45.7837 80.2351C46.6639 81.1153 47.8566 81.6116 49.1014 81.6155H76.0268C77.2716 81.6116 78.4643 81.1153 79.3445 80.2351C80.2247 79.3549 80.721 78.1622 80.7249 76.9174V38.2471H80.6065L80.6072 40.2145Z" fill="#C0B2DF"/>
<path d="M82.0794 30.645H42.8218V34.4328H82.0794V30.645Z" fill="#B29FDF"/>
<path d="M80.6095 38.2471H44.2881V40.2145H80.6095V38.2471Z" fill="#B29FDF"/>
<path d="M82.4317 34.3986H42.4695C42.217 34.3957 41.9666 34.443 41.7326 34.5377C41.4985 34.6323 41.2856 34.7725 41.1061 34.95C40.9266 35.1275 40.7841 35.3388 40.6869 35.5718C40.5896 35.8047 40.5396 36.0547 40.5396 36.3071C40.5396 36.5595 40.5896 36.8095 40.6869 37.0424C40.7841 37.2754 40.9266 37.4867 41.1061 37.6642C41.2856 37.8417 41.4985 37.9819 41.7326 38.0765C41.9666 38.1712 42.217 38.2185 42.4695 38.2156H82.4317C82.9342 38.21 83.4142 38.0065 83.7676 37.6492C84.1209 37.2919 84.3191 36.8096 84.3191 36.3071C84.3191 35.8046 84.1209 35.3223 83.7676 34.965C83.4142 34.6077 82.9342 34.4042 82.4317 34.3986Z" fill="#C0B2DF"/>
<path d="M82.4296 30.6432C82.9321 30.6376 83.4121 30.4341 83.7655 30.0768C84.1188 29.7195 84.317 29.2372 84.317 28.7347C84.317 28.2322 84.1188 27.7499 83.7655 27.3926C83.4121 27.0353 82.9321 26.8318 82.4296 26.8262H42.4968C41.9943 26.8318 41.5143 27.0353 41.1609 27.3926C40.8076 27.7499 40.6094 28.2322 40.6094 28.7347C40.6094 29.2372 40.8076 29.7195 41.1609 30.0768C41.5143 30.4341 41.9943 30.6376 42.4968 30.6432H82.4296Z" fill="#C0B2DF"/>
<path d="M50.1913 75.7423C49.1637 75.7423 48.312 74.8322 48.312 73.7162V44.8528C48.312 43.7371 49.1646 42.8267 50.1913 42.8267C51.2189 42.8267 52.0706 43.7368 52.0706 44.8528V73.7162C52.0703 74.8319 51.2189 75.7423 50.1913 75.7423Z" fill="#B29FDF"/>
<path d="M58.6146 75.7423C57.587 75.7423 56.7354 74.8322 56.7354 73.7162V44.8528C56.7354 43.7371 57.588 42.8267 58.6146 42.8267C59.6423 42.8267 60.494 43.7368 60.494 44.8528V73.7162C60.4643 74.8319 59.6423 75.7423 58.6146 75.7423Z" fill="#B29FDF"/>
<path d="M66.6322 75.7423C65.6046 75.7423 64.7529 74.8322 64.7529 73.7162V44.8528C64.7529 43.7371 65.6055 42.8267 66.6322 42.8267C67.6598 42.8267 68.5115 43.7368 68.5115 44.8528V73.7162C68.5112 74.8319 67.6598 75.7423 66.6322 75.7423Z" fill="#B29FDF"/>
<path d="M74.6752 75.7423C73.6476 75.7423 72.7959 74.8322 72.7959 73.7162V44.8528C72.7959 43.7371 73.6485 42.8267 74.6752 42.8267C75.7028 42.8267 76.5545 43.7368 76.5545 44.8528V73.7162C76.5249 74.8319 75.7028 75.7423 74.6752 75.7423Z" fill="#B29FDF"/>
<path d="M44.0835 42.7715C43.9954 42.5659 41.6758 41.3327 39.8846 40.3932C39.8553 40.3638 39.7965 40.3638 39.7662 40.3345C43.4071 43.2712 42.9374 53.1366 38.4743 63.3841C33.923 73.8077 26.8762 80.9428 22.2368 80.0033C24.1161 80.9428 26.4944 82.0586 26.7294 81.9998C31.6034 80.5023 37.476 73.8958 41.4106 64.8816C45.2873 56.0433 46.1681 47.4109 44.0835 42.7715Z" fill="#B29FDF"/>
<path d="M38.4742 63.3833C42.9374 53.1359 43.407 43.27 39.7661 40.3337C39.4921 40.1037 39.1853 39.9156 38.856 39.7757C34.2753 37.779 26.6412 45.1197 21.8552 56.1601C17.0396 67.2004 16.8634 77.772 21.4438 79.7676C21.6993 79.8727 21.965 79.9515 22.2365 80.0026C26.9052 80.9421 33.9523 73.8363 38.4742 63.3833Z" fill="#C0B2DF"/>
<path d="M36.0752 61.6088C39.7202 53.238 39.8546 45.2241 36.3754 43.7092C32.8963 42.1942 27.1211 47.752 23.4762 56.1227C19.8313 64.4935 19.6969 72.5074 23.176 74.0223C26.6551 75.5373 32.4303 69.9795 36.0752 61.6088Z" fill="#B29FDF"/>
<path d="M28.3749 63.9681C28.2746 63.9628 28.1757 63.943 28.0812 63.9094L26.4378 63.2048C26.214 63.1098 26.0123 62.9695 25.8456 62.7926C25.6788 62.6157 25.5505 62.4061 25.4689 62.1772C25.3789 61.9523 25.3352 61.7116 25.3402 61.4695C25.3453 61.2273 25.399 60.9887 25.4982 60.7678L28.8457 53.4564C28.9335 53.259 29.0595 53.081 29.2166 52.9326C29.3736 52.7843 29.5585 52.6685 29.7605 52.5921C29.9626 52.5156 30.1778 52.48 30.3937 52.4873C30.6096 52.4945 30.822 52.5445 31.0184 52.6343L32.8683 53.427C32.9609 53.4656 33.0449 53.522 33.1157 53.5931C33.1864 53.6641 33.2425 53.7484 33.2806 53.8411C33.3188 53.9338 33.3383 54.0331 33.3381 54.1334C33.3379 54.2336 33.3179 54.3329 33.2794 54.4254C33.2408 54.518 33.1844 54.602 33.1133 54.6727C33.0423 54.7435 32.958 54.7995 32.8653 54.8377C32.7726 54.8759 32.6733 54.8954 32.573 54.8952C32.4728 54.895 32.3735 54.875 32.281 54.8364L30.4311 54.0438C30.343 54.0144 30.2842 54.0438 30.2255 54.1319L26.8489 61.4138C26.8266 61.449 26.8148 61.4897 26.8148 61.5313C26.8148 61.5729 26.8266 61.6137 26.8489 61.6488C26.8826 61.7281 26.9458 61.7913 27.0251 61.825L28.6685 62.5289C28.8507 62.6123 28.9944 62.7618 29.0707 62.947C29.147 63.1323 29.1502 63.3396 29.0797 63.5271C29.0123 63.6569 28.9113 63.7662 28.7874 63.8437C28.6635 63.9213 28.521 63.9642 28.3749 63.9681Z" fill="#C0B2DF"/>
<path d="M25.7016 71.1602C25.3386 71.1688 24.978 71.0986 24.6446 70.9547C23.2352 70.3389 22.5012 68.4882 22.5891 65.7282C22.6772 63.1443 23.4699 60.0318 24.8206 56.9489C27.7275 50.313 32.1613 46.0545 34.9507 47.2593C36.3601 47.875 37.0941 49.7257 37.006 52.4858C36.9179 55.0696 36.1252 58.1821 34.7745 61.2652C33.4238 64.3484 31.6914 67.0791 29.872 68.8994C28.3738 70.3969 26.9057 71.1602 25.7016 71.1602ZM33.9231 48.1694C31.897 48.1694 28.3736 51.6047 25.8484 57.3892C24.5565 60.3548 23.7932 63.3205 23.7051 65.7575C23.617 67.989 24.1162 69.5159 25.0851 69.9258C26.0246 70.337 27.4928 69.6615 29.049 68.1053C30.7815 66.3728 32.4258 63.789 33.7178 60.8233L34.2464 61.0582L33.7178 60.8233C35.0097 57.8577 35.773 54.892 35.8611 52.455C35.9492 50.2235 35.45 48.6966 34.4811 48.2867C34.3083 48.2 34.1161 48.1596 33.9231 48.1694Z" fill="#C0B2DF"/>
<path d="M80.754 20.0797C82.9432 20.0797 84.7179 18.305 84.7179 16.1158C84.7179 13.9266 82.9432 12.1519 80.754 12.1519C78.5647 12.1519 76.79 13.9266 76.79 16.1158C76.79 18.305 78.5647 20.0797 80.754 20.0797Z" fill="#FED8D5"/>
<path d="M78.9661 14.9716L81.4913 17.4967L81.8437 17.8491C81.9267 17.9239 82.0352 17.9639 82.1468 17.961C82.2585 17.9581 82.3648 17.9124 82.4437 17.8334C82.5227 17.7544 82.5684 17.6482 82.5713 17.5365C82.5742 17.4249 82.5342 17.3164 82.4595 17.2334L79.935 14.7085L79.5826 14.3561C79.5428 14.3145 79.495 14.2814 79.4421 14.2588C79.3892 14.2363 79.3323 14.2246 79.2747 14.2246C79.2172 14.2246 79.1602 14.2363 79.1073 14.2588C79.0544 14.2814 79.0066 14.3145 78.9668 14.3561C78.8958 14.4429 78.8569 14.5517 78.8569 14.6639C78.8569 14.7762 78.8958 14.885 78.9668 14.9718L78.9661 14.9716Z" fill="#E94639"/>
<path d="M79.6094 17.8189L82.1348 15.294L82.4872 14.9416C82.5619 14.8586 82.602 14.7501 82.599 14.6385C82.5961 14.5268 82.5504 14.4205 82.4715 14.3416C82.3925 14.2626 82.2862 14.2169 82.1746 14.214C82.0629 14.2111 81.9544 14.2511 81.8714 14.3259L79.3462 16.85L78.9938 17.2024C78.9191 17.2854 78.8791 17.3939 78.882 17.5056C78.8849 17.6172 78.9306 17.7235 79.0095 17.8025C79.0885 17.8815 79.1948 17.9271 79.3064 17.93C79.4181 17.933 79.5266 17.8929 79.6096 17.8182L79.6094 17.8189Z" fill="#E94639"/>
<path d="M47.3719 18.8393C44.3769 17.8997 41.4113 16.96 38.4165 16.0209C38.0053 15.8741 37.5639 15.7566 37.1539 15.6098C36.6253 15.4336 36.3906 16.285 36.919 16.4624C39.914 17.4019 42.8796 18.3417 45.8744 19.2807C46.2856 19.4276 46.727 19.545 47.137 19.6919C47.6656 19.8681 47.9003 19.0167 47.3719 18.8393Z" fill="#E94639"/>
<path d="M48.6904 14.2858C47.7803 12.9938 46.8699 11.6725 45.9304 10.3806C45.8119 10.2044 45.6661 9.99882 45.5486 9.82261C45.4863 9.72139 45.3863 9.64907 45.2707 9.62155C45.155 9.59403 45.0332 9.61358 44.932 9.67589C44.8308 9.7382 44.7584 9.83817 44.7309 9.95381C44.7034 10.0694 44.723 10.1913 44.7853 10.2925C45.6954 11.5844 46.6058 12.9057 47.5453 14.1977C47.6638 14.3739 47.8097 14.5795 47.9271 14.7557C47.9569 14.8069 47.9967 14.8515 48.0442 14.8868C48.0918 14.9221 48.1459 14.9474 48.2035 14.9611C48.2611 14.9748 48.3209 14.9767 48.3792 14.9667C48.4376 14.9566 48.4932 14.9348 48.5429 14.9025C48.641 14.8377 48.7107 14.738 48.738 14.6236C48.7653 14.5093 48.748 14.3888 48.6897 14.2867L48.6904 14.2858Z" fill="#E94639"/>
</svg>
