<svg width="360" height="300" viewBox="0 0 360 300" fill="none" xmlns="http://www.w3.org/2000/svg">
<g clip-path="url(#clip0_289_1712)">
<rect width="360" height="300" fill="#17191C"/>
<path d="M-21.2732 184.18C-21.2732 184.18 -10.1658 104.433 76.0274 100.093C162.221 95.7516 386.893 167.722 369 -25" stroke="#2F3033" stroke-miterlimit="10"/>
<path d="M-44.2911 215.385C-44.2911 215.385 -5.05946 145.073 76.8558 172.239C158.771 199.406 342.133 347.851 395.243 161.729" stroke="#2F3033" stroke-miterlimit="10"/>
<path d="M360.44 301.256C360.44 301.256 319.547 253.957 227.183 248.376C134.819 242.794 59.3765 301.256 -30.9309 301.256H360.44Z" fill="#22262A"/>
<path d="M325.893 300.41C325.893 300.41 258.206 222.147 109.084 300.41H325.893Z" fill="#22262A"/>
<path d="M325.893 300.41C325.893 300.41 258.206 222.147 109.084 300.41" stroke="#1F1F1F" stroke-miterlimit="10"/>
<path d="M263.905 90.5412C264.733 89.945 265.44 89.1968 265.989 88.3367C267.018 87.0882 268.39 86.168 269.935 85.6892C270.633 85.4503 271.376 85.3678 272.109 85.4476C273.221 85.7498 274.3 86.1612 275.33 86.6757C278.189 87.6823 281.3 86.4341 284.32 86.2731C287.29 86.1308 290.216 87.0396 292.584 88.84C294.174 90.058 295.543 92.1115 294.778 93.9637C294.483 94.6349 294.027 95.2227 293.45 95.6749C292.37 96.5905 291.136 97.3064 289.806 97.7888C288.576 98.0971 287.389 98.557 286.272 99.1578C285.392 99.8539 284.579 100.633 283.846 101.483C281.911 103.29 279.435 104.412 276.8 104.674C274.185 104.926 271.547 104.621 269.059 103.778C268.043 103.507 267.096 103.023 266.281 102.359C265.113 101.352 264.479 99.9128 263.201 98.9666C261.922 98.0204 260.593 97.5372 259.869 96.2487C259.601 95.7464 259.473 95.1811 259.5 94.6123C259.526 94.0435 259.706 93.4925 260.02 93.0174C260.976 91.2559 262.365 91.3767 263.905 90.5412Z" fill="#603CA2"/>
<path d="M265.265 76.1765C264.701 75.4489 264.428 74.5374 264.5 73.6197C264.318 71.2944 264.177 68.7879 265.456 66.8351C266.136 65.8746 267.108 65.1597 268.227 64.7969C269.346 64.4341 270.553 64.4428 271.667 64.8218C272.157 63.75 272.891 62.8077 273.81 62.0701C274.73 61.3326 275.809 60.8202 276.961 60.5739C278.118 60.3463 279.31 60.3725 280.455 60.6506C281.601 60.9286 282.672 61.452 283.595 62.1845C284.468 63.0213 285.407 63.7856 286.404 64.4695C286.906 64.8055 287.505 64.9677 288.108 64.9314C288.712 64.895 289.287 64.6621 289.746 64.2682C290.152 65.133 290.238 66.1142 289.987 67.0364C289.595 68.043 288.487 68.5463 287.763 69.3416C286.655 70.5596 286.826 72.2104 286.685 73.7606C286.588 74.5472 286.353 75.3104 285.991 76.0155C285.696 76.9389 285.336 77.8404 284.914 78.7132C284.763 78.9649 284.249 79.7198 284.078 79.0555L281.058 78.7535C277.656 78.4112 274.254 78.0388 270.871 77.5657C269.462 77.3643 268.053 77.1731 266.664 76.861C266.143 76.7653 265.659 76.5285 265.265 76.1765Z" fill="#0F0F0F"/>
<path d="M266.634 75.8648C266.44 75.5708 266.179 75.3266 265.873 75.1519C265.567 74.9773 265.224 74.8771 264.873 74.8594C264.521 74.8418 264.17 74.9072 263.848 75.0504C263.526 75.1936 263.242 75.4105 263.02 75.6836C261.107 77.7572 264.027 82.0555 266.312 82.3575C266.554 80.2021 266.662 78.0336 266.634 75.8648Z" fill="#E0855C"/>
<path d="M298.996 102.661C295.902 109.054 293.375 115.706 291.447 122.542C291.286 123.196 291.125 123.82 291.004 124.424C290.098 128.632 286.977 148.996 286.514 152.207C286.514 152.479 286.454 152.63 286.454 152.63C269.895 156.304 253.235 150.979 253.235 150.979C253.235 150.979 253.235 150.657 253.235 150.053C253.054 146.026 252.289 129.336 252.037 114.932C251.907 107.583 251.917 100.839 252.209 96.6313C252.309 95.0912 255.863 95.4335 258.349 95.2221C261.319 94.977 264.3 94.9132 267.278 95.0308H267.68H268.184L268.526 92.6451L268.757 91.0547L269.291 86.8168C269.563 86.8772 269.835 86.9577 270.106 86.998C270.624 87.1113 271.149 87.192 271.677 87.2396C272.322 87.3018 272.971 87.3254 273.619 87.31C273.931 87.31 274.233 87.31 274.525 87.2496C274.817 87.1892 275.361 87.1691 275.764 87.1087C276.411 87.002 277.053 86.8608 277.686 86.6859C277.874 86.6429 278.059 86.5891 278.24 86.5249C278.293 86.5349 278.348 86.5349 278.401 86.5249L278.824 86.3839C279.618 86.1118 280.389 85.7751 281.129 85.3773C281.532 85.1659 281.884 84.9747 282.135 84.7935L282.377 84.6022C282.509 84.5224 282.637 84.435 282.76 84.3405C282.851 84.2862 282.938 84.2257 283.021 84.1593C282.951 84.4512 282.911 84.5821 282.89 84.723C282.649 86.0719 282.367 87.8133 282.196 89.5548C282.055 90.7527 281.964 91.9304 281.864 92.9572C281.723 94.7389 281.662 96.0374 281.662 96.0374C282.053 96.0539 282.443 96.0909 282.83 96.1482C282.872 96.1336 282.918 96.1336 282.961 96.1482C284.656 96.3091 286.338 96.5883 287.994 96.9837C291.806 97.8621 295.438 99.3874 298.735 101.493C298.913 101.623 299.038 101.813 299.086 102.028C299.134 102.243 299.102 102.468 298.996 102.661Z" fill="#F5A784"/>
<path d="M282.98 84.1893C280.363 93.6616 270.85 92.4738 268.666 91.0947L269.29 86.8166C271.627 87.3826 274.059 87.4411 276.42 86.9878C278.782 86.5346 281.019 85.5803 282.98 84.1893Z" fill="#E0855C"/>
<path d="M267.359 69.6235C266.09 70.8113 265.859 73.65 265.597 76.6699C264.832 86.0214 267.489 89.0815 272.251 89.8365C277.012 90.5915 282.106 89.001 283.565 80.3642C284.29 76.0558 285.045 72.0696 283.565 70.1168C281.371 67.2177 271.224 65.9796 267.359 69.6235Z" fill="#F5A784"/>
<path d="M282.961 79.106C282.961 79.106 284.612 75.301 286.827 77.4652C289.041 79.6294 285.548 85.337 282.035 84.7229C282.035 84.7229 281.773 80.3743 282.961 79.106Z" fill="#F5A784"/>
<path d="M285.659 79.1763C285.111 79.3274 284.611 79.6188 284.21 80.0219C283.762 80.3616 283.388 80.7899 283.113 81.2802C283.042 81.4412 283.254 81.5419 283.374 81.4513C283.686 81.1896 283.938 80.8675 284.23 80.5755C284.4 80.8155 284.624 81.0121 284.884 81.1493C285.096 81.2399 285.267 80.9782 285.176 80.8071C285.051 80.5756 284.867 80.3812 284.643 80.2434C285.047 80.0098 285.434 79.7474 285.8 79.4582C285.829 79.4352 285.849 79.403 285.857 79.3669C285.865 79.3309 285.861 79.2932 285.844 79.2602C285.828 79.2272 285.8 79.2008 285.767 79.1855C285.733 79.1703 285.695 79.167 285.659 79.1763Z" fill="#E0855C"/>
<path d="M269.724 76.6802C269.724 76.6802 268.899 76.9319 269.09 75.5125C269.282 74.0932 269.835 74.4254 269.835 74.4254C269.835 74.4254 270.399 74.4254 270.258 75.5729C270.117 76.7205 269.724 76.6802 269.724 76.6802Z" fill="#0F0F0F"/>
<path d="M277.929 77.0826C277.929 77.0826 277.103 77.3443 277.294 75.9149C277.486 74.4855 278.039 74.8378 278.039 74.8378C278.039 74.8378 278.603 74.8378 278.462 75.9853C278.321 77.1329 277.929 77.0826 277.929 77.0826Z" fill="#0F0F0F"/>
<path d="M273.207 80.676C272.805 80.5955 271.848 80.7968 271.677 80.3439C271.802 79.3509 272.049 78.3772 272.412 77.4448C272.861 76.1948 273.24 74.9212 273.55 73.6297C273.55 73.5592 273.449 73.5089 273.409 73.6297C272.402 75.7235 271.868 78.3608 271.184 80.6056C271.175 80.6355 271.173 80.667 271.177 80.6979C271.182 80.7288 271.193 80.7583 271.21 80.7843C271.228 80.8103 271.251 80.8321 271.277 80.8482C271.304 80.8643 271.334 80.8743 271.365 80.8774C271.969 80.8774 272.543 81.0485 273.147 81.0888C273.318 81.0485 273.419 80.7163 273.207 80.676Z" fill="#E0855C"/>
<path d="M270.832 72.3614C270.258 72.0393 269.181 71.9084 268.728 72.4923C268.712 72.5187 268.704 72.5485 268.703 72.579C268.702 72.6096 268.709 72.6398 268.723 72.6669C268.738 72.6941 268.758 72.7172 268.784 72.7342C268.809 72.7511 268.838 72.7614 268.869 72.764C269.161 72.764 269.422 72.6433 269.714 72.6332C270.022 72.6329 270.327 72.6945 270.61 72.8144C270.67 72.8438 270.74 72.8481 270.803 72.8263C270.866 72.8046 270.918 72.7587 270.947 72.6986C270.977 72.6386 270.981 72.5693 270.959 72.506C270.938 72.4428 270.892 72.3908 270.832 72.3614Z" fill="#0F0F0F"/>
<path d="M279.358 73.5289C279.076 72.6834 277.637 72.5223 277.002 73.0156C276.972 73.0425 276.949 73.077 276.937 73.1156C276.924 73.1541 276.921 73.1953 276.93 73.2351C276.938 73.2748 276.956 73.3118 276.983 73.3421C277.01 73.3725 277.044 73.3953 277.083 73.4081C277.449 73.469 277.82 73.4893 278.19 73.4685C278.494 73.5448 278.788 73.6563 279.066 73.8007C279.177 73.8309 279.358 73.6598 279.358 73.5289Z" fill="#0F0F0F"/>
<path d="M271.032 83.4746C272.78 83.7926 274.584 83.575 276.206 82.8505C275.941 83.3954 275.564 83.8791 275.102 84.2707C274.639 84.6624 274.1 84.9535 273.519 85.1254C271.697 85.5281 271.032 83.4746 271.032 83.4746Z" fill="white"/>
<path d="M251.101 221.503C246.068 230.25 242.947 239.894 239.112 249.185C235.336 257.997 230.55 266.341 224.848 274.049C221.557 278.699 215.628 285.041 216.01 291.161C216.005 291.211 216.005 291.262 216.01 291.312C216.181 293.517 216.644 295.771 216.312 297.976C215.658 302.103 212.175 300.593 209.125 300.603H199.582C195.375 300.603 189.909 301.539 185.812 300.533C183.708 300.029 186.275 297.644 186.999 297.312C190.07 295.862 193.331 294.845 196.431 293.456C199.361 292.276 201.984 290.444 204.102 288.101C204.278 287.909 204.442 287.708 204.595 287.497C207.746 283.289 214.601 263.519 218.195 253.272C218.859 251.339 219.433 249.739 219.846 248.641C229.559 222.369 237.32 195.361 246.581 168.786C248.232 164.105 253.044 148.342 256.547 144.798C261.489 139.765 266.029 150.979 271.093 155.871C272.519 157.344 273.509 159.184 273.951 161.186C279.548 182.818 261.157 204.129 251.101 221.503Z" fill="#F5A784"/>
<path d="M319.1 299.415C318.724 299.679 318.27 299.807 317.811 299.777C310.231 300.049 302.782 299.777 295.243 299.777C293.693 299.637 291.941 299.345 291.096 298.046C290.664 297.238 290.442 296.335 290.451 295.419C290.364 294.01 290.223 292.667 290.029 291.392C289.399 287.189 288.343 283.061 286.878 279.071C283.466 269.731 281.136 260.031 279.932 250.161C278.815 239.783 278.513 229.264 276.026 219.077C274.013 210.973 270.903 201.853 268.618 192.552C265.396 179.416 263.876 165.917 269.624 154.361C269.956 153.696 270.309 153.022 270.691 152.348C273.661 147.315 278.513 145.784 283.838 148.442C287.321 150.173 289.304 153.918 290.633 157.582C291.819 160.95 292.735 164.407 293.371 167.92C294.971 176.386 295.333 185.284 296.068 193.619C297.145 206.041 297.266 218.412 297.78 230.864C298.212 241.615 299.169 273.867 299.37 279.242C299.461 281.89 299.42 285.282 300.447 288.101C300.91 289.49 301.759 290.718 302.893 291.644C304.209 292.516 305.842 293.865 307.39 294.17C310.763 295.086 313.644 295.801 317.076 296.687C317.77 296.801 318.421 297.1 318.959 297.553C319.218 297.785 319.377 298.109 319.404 298.456C319.43 298.803 319.321 299.146 319.1 299.415Z" fill="#F5A784"/>
<path d="M257.442 96.8528C253.526 93.9335 244.235 96.9232 240.44 98.0808C234.914 99.772 229.367 101.886 223.61 102.107C223.005 102.165 222.395 102.082 221.828 101.866C221.176 101.499 220.631 100.968 220.247 100.326C215.214 93.3598 207.896 85.5081 206.608 76.7203C206.386 75.269 206.492 73.7863 206.92 72.3818C207.111 71.7375 207.322 71.0933 207.504 70.4491C207.814 69.4724 207.974 68.454 207.977 67.4292C208.01 66.5777 207.79 65.7356 207.343 65.0097C206.897 64.2838 206.245 63.7069 205.47 63.3524C202.078 62.1847 197.206 65.1643 197.478 68.6975C197.548 69.533 197.629 70.3585 197.739 71.1839C197.911 72.5227 198.132 73.8816 198.384 75.2104C199.078 78.8141 200.014 82.3675 200.951 85.8403C202.37 91.1351 203.86 96.4199 205.672 101.594C207.262 106.154 210.302 112.284 214.399 115.083C217.258 117.036 220.862 117.468 224.314 117.68C232.571 118.179 240.858 117.713 249.007 116.291C251.179 116.045 253.278 115.36 255.177 114.277C257.845 112.536 257.654 110.583 258.197 107.905C258.902 104.563 260.321 101.866 258.69 98.4835C258.418 97.8439 257.988 97.2831 257.442 96.8528ZM205.098 75.3714C205.086 75.3516 205.08 75.329 205.08 75.306C205.08 75.283 205.086 75.2605 205.098 75.2406C205.098 75.2406 205.118 75.3211 205.128 75.3714H205.098Z" fill="#F5A784"/>
<path d="M206.609 76.6903C204 75.6238 201.202 75.1031 198.384 75.1602C198.133 73.8415 197.911 72.4826 197.74 71.1337L207.504 70.4089C207.323 71.0532 207.112 71.6974 206.921 72.3416C206.492 73.7494 206.385 75.2357 206.609 76.6903Z" fill="#E0855C"/>
<path d="M211.36 66.4829L194.248 68.0129C194.11 67.0079 193.59 66.0947 192.796 65.4628C192.003 64.831 190.996 64.529 189.986 64.6197C188.975 64.7104 188.039 65.1867 187.37 65.9498C186.702 66.7129 186.353 67.7041 186.396 68.7176L186.849 73.7507C186.943 74.7932 187.446 75.7559 188.25 76.427C189.053 77.0981 190.09 77.4227 191.132 77.3292C192.175 77.2358 193.138 76.732 193.809 75.9288C194.48 75.1255 194.804 74.0886 194.711 73.0461L211.823 71.5059C211.917 72.5485 212.421 73.5112 213.224 74.1823C214.027 74.8534 215.064 75.1779 216.107 75.0845C217.149 74.991 218.112 74.4873 218.783 73.684C219.454 72.8808 219.779 71.8438 219.685 70.8013L219.222 65.7682C219.084 64.7632 218.564 63.8499 217.771 63.2181C216.977 62.5862 215.971 62.2843 214.96 62.3749C213.95 62.4656 213.013 62.9419 212.345 63.705C211.676 64.4681 211.327 65.4593 211.37 66.4728L211.36 66.4829Z" fill="#957AD3"/>
<path d="M200.841 70.9825C200.844 71.4267 200.957 71.8632 201.169 72.2532C201.382 72.6432 201.688 72.9744 202.059 73.2172C202.475 73.3971 202.925 73.483 203.378 73.4689C204.371 73.5978 205.381 73.4944 206.328 73.1669C206.88 72.8994 207.364 72.5091 207.743 72.0258C208.121 71.5426 208.384 70.9791 208.512 70.3786C208.763 69.1685 208.683 67.9131 208.28 66.7447C208.091 65.9618 207.662 65.2578 207.052 64.7314C206.661 64.4547 206.22 64.2564 205.754 64.1476C203.972 63.6757 202.088 63.7636 200.358 64.3992C198.899 64.9428 198.184 65.8286 199.231 66.9661C200.539 68.3452 200.67 69.0599 200.841 70.9825Z" fill="#F5A784"/>
<path d="M278.753 97.8855C277.122 101.259 278.542 103.839 279.257 107.173C279.831 109.813 279.63 111.738 282.278 113.455C284.174 114.523 286.271 115.198 288.441 115.439C296.592 116.842 304.882 117.301 313.142 116.809C316.596 116.6 320.191 116.174 323.061 114.249C327.159 111.49 330.2 105.447 331.791 100.952C333.604 95.8512 335.094 90.6416 336.514 85.4221C337.451 81.9986 338.387 78.476 339.082 74.9433C339.334 73.6434 339.555 72.3038 339.737 70.9741C339.837 70.1604 339.918 69.3467 339.988 68.5231C340.27 65.0401 335.386 62.1029 331.993 63.254C331.226 63.6158 330.585 64.1935 330.151 64.9141C329.718 65.6348 329.51 66.4659 329.556 67.3026C329.559 68.3129 329.719 69.3167 330.029 70.2795C330.21 70.9146 330.422 71.5497 330.623 72.1847C331.042 73.5709 331.149 75.0306 330.936 76.4616C329.637 85.1244 322.296 92.8644 317.281 99.7312C316.897 100.364 316.352 100.888 315.7 101.249C315.132 101.463 314.522 101.544 313.917 101.488C308.137 101.299 302.609 99.2151 297.081 97.5183C293.284 96.3772 283.99 93.43 280.073 96.3077C279.504 96.715 279.05 97.2579 278.753 97.8855ZM332.386 75.0624V75.1815C332.371 75.1613 332.363 75.137 332.363 75.112C332.363 75.0871 332.371 75.0628 332.386 75.0426V75.0624Z" fill="#F5A784"/>
<path d="M331.028 76.6903C333.633 75.6238 336.428 75.1031 339.242 75.1602C339.494 73.8415 339.715 72.4826 339.896 71.1337L330.122 70.4089C330.303 71.0532 330.515 71.6974 330.716 72.3416C331.136 73.751 331.243 75.2353 331.028 76.6903Z" fill="#E0855C"/>
<path d="M326.265 66.4829L343.378 68.0129C343.516 67.0079 344.036 66.0947 344.829 65.4628C345.623 64.831 346.629 64.529 347.64 64.6197C348.65 64.7104 349.587 65.1867 350.255 65.9498C350.924 66.7129 351.272 67.7041 351.229 68.7176L350.776 73.7507C350.754 74.284 350.623 74.8072 350.392 75.2885C350.162 75.7699 349.836 76.1994 349.434 76.5512C349.033 76.9029 348.564 77.1695 348.056 77.3349C347.549 77.5002 347.013 77.5609 346.481 77.5131C345.95 77.4654 345.433 77.3103 344.963 77.0573C344.493 76.8042 344.079 76.4584 343.747 76.0408C343.414 75.6232 343.17 75.1425 343.029 74.6277C342.888 74.113 342.852 73.5749 342.925 73.0461L325.812 71.5059C325.789 72.0392 325.659 72.5624 325.428 73.0438C325.197 73.5251 324.871 73.9547 324.47 74.3064C324.068 74.6581 323.6 74.9247 323.092 75.0901C322.585 75.2554 322.049 75.3161 321.517 75.2684C320.985 75.2207 320.469 75.0656 319.999 74.8125C319.529 74.5594 319.115 74.2136 318.783 73.796C318.45 73.3784 318.206 72.8977 318.065 72.3829C317.923 71.8682 317.888 71.3301 317.961 70.8013L318.413 65.7682C318.552 64.7632 319.071 63.8499 319.865 63.2181C320.659 62.5862 321.665 62.2843 322.675 62.3749C323.686 62.4656 324.623 62.9419 325.291 63.705C325.959 64.4681 326.308 65.4593 326.265 66.4728V66.4829Z" fill="#957AD3"/>
<path d="M336.735 70.9826C336.733 71.4267 336.62 71.8632 336.408 72.2532C336.195 72.6432 335.889 72.9744 335.517 73.2173C335.102 73.3971 334.652 73.483 334.199 73.4689C333.209 73.5984 332.202 73.495 331.259 73.1669C330.705 72.9006 330.219 72.5109 329.839 72.0275C329.458 71.5442 329.194 70.9801 329.065 70.3786C328.822 69.1679 328.902 67.9148 329.297 66.7447C329.486 65.9618 329.915 65.2578 330.525 64.7314C330.917 64.4564 331.357 64.2583 331.823 64.1476C333.609 63.6788 335.495 63.7666 337.229 64.3992C338.678 64.9428 339.393 65.8286 338.356 66.9661C337.088 68.3452 336.957 69.0599 336.735 70.9826Z" fill="#F5A784"/>
<path d="M299.963 280.451C299.818 280.658 299.641 280.841 299.44 280.994C299.124 281.212 298.787 281.398 298.433 281.548C297.684 281.843 296.899 282.032 296.098 282.112C295.43 282.188 294.756 282.211 294.085 282.182C290.974 282.112 287.894 282.182 287.894 282.182C284.33 275.538 276.016 252.265 276.71 236.723C277.405 221.181 267.882 193.931 267.882 193.931C267.882 193.931 267.882 194.103 267.802 194.203C265.718 201.25 245.334 241.323 241.7 249.628C241.619 249.829 241.539 250 241.468 250.171C237.553 259.523 219.605 281.185 219.605 281.185C215.649 281.417 209.468 277.209 209.468 277.209C209.468 277.209 207.847 270.576 210.626 256.201C213.404 241.827 230.094 218.956 234.271 198.924C238.449 178.893 253.186 150.033 253.186 150.033C261.043 151.482 269.079 151.693 277.002 150.657C277.218 150.638 277.433 150.608 277.646 150.566C278.774 150.415 279.821 150.234 280.777 150.063L281.784 149.862C283.571 149.519 285.336 149.068 287.068 148.513C295.564 160.522 297.608 181.49 297.608 188.687C297.608 195.884 300.628 239.924 300.628 248.279C300.618 256.211 302.832 276.183 299.963 280.451Z" fill="#0F0F0F"/>
<path d="M299.963 280.451C299.823 280.662 299.646 280.846 299.439 280.994C299.124 281.212 298.786 281.398 298.433 281.548C299.349 260.117 295.232 238.786 293.531 217.406C292.524 205.065 293.319 192.603 292.111 180.302C291.024 169.088 286.635 159.455 280.767 150.103L281.773 149.902C288.135 157.582 291.839 167.729 293.188 177.503C294.869 189.784 293.631 202.407 294.537 214.748C295.463 227.573 297.175 240.347 298.483 253.131C299.419 262.039 300.496 271.351 299.963 280.451Z" fill="black"/>
<path d="M267.852 193.931C267.852 193.992 267.852 194.072 267.852 194.183C265.768 201.229 245.384 241.303 241.75 249.608C244.528 238.132 244.77 228.72 250.105 215.705C256.517 200.011 267.016 194.324 267.852 193.931Z" fill="black"/>
<path d="M337.449 82.8505C337.449 82.8505 335.738 102.147 330.121 111.338C324.504 120.528 293.953 117.025 293.953 117.025C293.953 117.025 287.319 141.808 290.45 148.533C293.581 155.257 279.84 156.304 275.481 156.112C271.123 155.921 247.86 156.424 248.041 152.086C248.222 147.747 251.514 146.197 251.161 140.107C250.809 134.017 250.638 116.955 250.638 116.955C250.638 116.955 230.999 121.454 218.638 118.686C206.276 115.918 201.012 93.1684 200.951 85.7596L208.692 82.8203C208.692 82.8203 218.758 96.601 221.074 98.8155C223.389 101.03 245.081 94.5877 250.87 94.789C256.658 94.9904 268.5 92.5001 268.5 92.5001C268.5 92.5001 268.908 102.268 273.559 101.564C278.209 100.859 282 94.0001 282 94.0001C285.589 93.0904 289.359 94.3291 293 95.0001C293.201 95.0001 292.987 95.7957 293.208 95.8561C295.795 96.4298 299.55 97.5673 303.274 98.5236C308.146 99.802 312.807 100.788 314.347 99.9027C317.125 98.2619 329.93 81.0486 329.93 81.0486L337.449 82.8505Z" fill="#603CA2"/>
<path d="M270.197 105.157C267.691 104.875 268.103 110.382 268.123 111.68C268.247 113.245 268.111 114.82 267.721 116.341C267.117 117.67 266.445 118.967 265.708 120.226C265.311 120.924 265.071 121.7 265.005 122.499C264.939 123.299 265.048 124.104 265.325 124.857C265.356 124.928 265.412 124.985 265.482 125.018C265.552 125.051 265.632 125.057 265.706 125.037C265.781 125.016 265.845 124.969 265.888 124.905C265.931 124.84 265.949 124.762 265.939 124.686C265.386 121.012 268.184 118.777 268.838 115.435C269.201 113.613 268.013 106.466 270.237 105.771C270.309 105.754 270.373 105.712 270.416 105.653C270.46 105.594 270.482 105.521 270.477 105.447C270.472 105.374 270.441 105.304 270.39 105.251C270.339 105.198 270.27 105.165 270.197 105.157Z" fill="#0F0F0F"/>
<path d="M273.46 105.459C271.92 107.472 272.171 109.606 272.453 111.962C272.808 114.191 272.625 116.472 271.92 118.616C271.388 119.915 271.185 121.326 271.326 122.723C271.326 122.781 271.349 122.838 271.391 122.879C271.432 122.921 271.488 122.944 271.547 122.944C271.606 122.944 271.662 122.921 271.704 122.879C271.745 122.838 271.769 122.781 271.769 122.723C272.081 120.307 273.339 118.132 273.591 115.676C273.963 112.213 272.121 109.063 273.933 105.711C274.164 105.409 273.691 105.167 273.46 105.459Z" fill="#0F0F0F"/>
<path d="M234.653 119.351C234.653 119.351 249.431 111.61 251.162 107.946C252.893 104.281 250.659 117.82 250.659 117.82L234.653 119.351Z" fill="#4F2C8F"/>
<path d="M293.219 95.8459C295.806 96.4197 299.571 97.5471 303.285 98.5135C301.399 98.0788 299.434 98.1278 297.572 98.6557C295.711 99.1836 294.012 100.174 292.635 101.533C288.317 106.003 277.989 104.744 276.922 104.614C283.898 105.379 291.84 97.3055 293.219 95.8459Z" fill="#4F2C8F"/>
<path d="M216.323 298.006C215.669 302.133 212.186 300.623 209.136 300.633H199.593C195.385 300.633 189.919 301.569 185.822 300.562C183.719 300.059 186.285 297.673 187.01 297.341C190.08 295.892 193.342 294.875 196.442 293.486C199.372 292.305 201.995 290.474 204.113 288.131L204.566 288.03C205.645 287.897 206.734 288.181 207.609 288.825C208.485 289.469 209.082 290.423 209.277 291.493C211.038 292.972 213.806 291.15 216.021 291.301C216.192 293.496 216.655 295.751 216.323 298.006Z" fill="#0F0F0F"/>
<path d="M322.283 300.481C321.866 300.764 321.362 300.901 320.854 300.869C312.452 301.16 304.194 300.869 295.836 300.869C294.118 300.718 292.176 300.406 291.239 299.016C290.76 298.151 290.514 297.184 290.524 296.204C290.428 294.695 290.271 293.259 290.056 291.894C292.578 291.366 295.948 293.725 298.045 292.023C298.215 291.148 298.643 290.339 299.279 289.695C299.915 289.05 300.731 288.598 301.627 288.392C302.141 289.879 303.081 291.194 304.339 292.185C305.798 293.118 307.432 293.766 309.149 294.092C312.887 295.072 316.257 296.635 320.062 297.583C320.831 297.705 321.552 298.025 322.149 298.51C322.426 298.76 322.595 299.104 322.62 299.47C322.645 299.836 322.524 300.198 322.283 300.481Z" fill="#0F0F0F"/>
<path d="M231.751 -1C231.751 -1 247.018 15.426 225.478 36.6336C203.938 57.8412 161.053 59.5122 115.979 51.0229C84 45 49.1137 60.5 23 80.5C-3.11372 100.5 -9 123 -18 144V-1H231.751Z" fill="#957AD3"/>
<path d="M-1 36.4496C-1 36.4496 15.6586 6.75889 58.3488 14.7247C101.039 22.6905 200.581 75.7613 219 -1" stroke="#B29FDF" stroke-miterlimit="10"/>
<path d="M231.54 205.22H219.36V189.23H231.54V205.22Z" fill="#0F0F0F"/>
<path d="M201.584 209.993L201.204 210.236C199.417 211.378 197.043 210.855 195.901 209.068L191.426 202.065C190.284 200.278 190.807 197.904 192.594 196.762L192.973 196.52C194.76 195.378 197.135 195.901 198.277 197.688L202.752 204.69C203.894 206.477 203.371 208.851 201.584 209.993Z" fill="#603CA2"/>
<path d="M236.94 187.18V187.76C236.94 190.615 234.626 192.93 231.77 192.93H219.13C216.275 192.93 213.96 190.615 213.96 187.76V187.18C213.96 184.325 216.275 182.01 219.13 182.01H231.77C234.626 182.01 236.94 184.325 236.94 187.18Z" fill="#603CA2"/>
<path d="M225.45 300.12C197.035 300.12 174 277.085 174 248.67C174 220.255 197.035 197.22 225.45 197.22C253.865 197.22 276.9 220.255 276.9 248.67C276.9 277.085 253.865 300.12 225.45 300.12Z" fill="#603CA2"/>
<path d="M225.451 287.06C204.249 287.06 187.061 269.872 187.061 248.67C187.061 227.468 204.249 210.28 225.451 210.28C246.653 210.28 263.841 227.468 263.841 248.67C263.841 269.872 246.653 287.06 225.451 287.06Z" fill="#D4CCE7"/>
<path d="M226.511 252.73H200.661C200.514 252.744 200.365 252.728 200.225 252.681C200.084 252.635 199.955 252.559 199.846 252.46C199.736 252.361 199.649 252.239 199.589 252.104C199.529 251.969 199.498 251.823 199.498 251.675C199.498 251.527 199.529 251.381 199.589 251.246C199.649 251.11 199.736 250.989 199.846 250.89C199.955 250.791 200.084 250.715 200.225 250.669C200.365 250.622 200.514 250.606 200.661 250.62H224.401V226.06C224.426 225.798 224.548 225.555 224.743 225.378C224.939 225.201 225.192 225.103 225.456 225.103C225.719 225.103 225.973 225.201 226.168 225.378C226.363 225.555 226.485 225.798 226.511 226.06V252.73Z" fill="#603CA2"/>
<path d="M199.04 181.2C199.728 183.213 200.191 185.295 200.42 187.41C200.77 189.41 201.53 191.72 201.21 193.69C201.204 193.71 201.191 193.727 201.174 193.74C201.157 193.752 201.136 193.759 201.115 193.759C201.094 193.759 201.074 193.752 201.057 193.74C201.039 193.727 201.027 193.71 201.02 193.69C200.1 191.92 200.02 189.48 199.68 187.52C199.125 185.47 198.75 183.375 198.56 181.26C198.573 181.209 198.601 181.164 198.64 181.13C198.679 181.095 198.728 181.073 198.78 181.067C198.832 181.06 198.884 181.069 198.931 181.093C198.977 181.117 199.015 181.154 199.04 181.2Z" fill="white"/>
<path d="M180.46 178.06C182.19 179.92 183.74 182.01 185.29 184.06C186.839 185.958 188.253 187.963 189.52 190.06C189.61 190.23 189.37 190.39 189.26 190.26C187.66 188.36 186.26 186.26 184.75 184.26C183.24 182.26 181.58 180.4 180.06 178.42C179.85 178.17 180.23 177.82 180.46 178.06Z" fill="white"/>
<path d="M180.591 198.79C182.893 199.509 185.145 200.381 187.331 201.4C187.831 201.6 187.571 202.4 187.061 202.2C184.738 201.431 182.469 200.505 180.271 199.43C179.921 199.22 180.211 198.7 180.591 198.79Z" fill="white"/>
<path d="M95.5279 216.616C92.0279 226.746 81.1979 242.286 81.1979 242.286L44.0379 226.836C44.1379 225.496 42.2879 218.106 42.5979 215.486C42.6118 215.294 42.6556 215.105 42.7279 214.926C42.8479 214.626 42.9879 214.326 43.1079 214.036C43.7379 212.666 44.3779 211.386 44.8779 210.466C45.3779 209.546 45.7179 208.946 45.7179 208.946C44.8754 207.536 43.6081 206.43 42.0979 205.786C40.0006 204.819 37.706 204.357 35.3979 204.436H34.8779C31.7479 204.246 32.8779 202.016 35.1179 199.626C37.2309 197.451 39.5112 195.444 41.9379 193.626L51.5279 199.816C52.0779 200.096 53.0079 199.406 53.9879 198.246C55.0066 197.013 55.876 195.663 56.5779 194.226C57.051 193.295 57.4327 192.32 57.7179 191.316C58.0279 190.166 62.9079 193.316 69.0779 197.756C75.4379 202.286 83.1679 208.226 88.7479 212.226C90.8683 213.894 93.1379 215.364 95.5279 216.616Z" fill="#B57456"/>
<path d="M230.918 298.296C230.028 303.576 220.988 297.856 218.838 296.566C217.613 295.831 216.312 295.23 214.958 294.776C214.698 294.686 212.058 293.586 211.868 293.776C211.868 293.776 209.068 293.156 204.648 292.006C194.384 289.356 184.311 286.015 174.498 282.006C157.158 274.686 146.028 271.466 137.568 270.096C136.448 269.916 135.078 269.666 133.508 269.346C123.148 267.276 104.288 262.346 94.768 254.946C90.1266 251.366 85.8251 247.365 81.918 242.996C80.6143 241.556 79.3892 240.047 78.248 238.476C79.81 237.872 81.1883 236.872 82.248 235.576C84.87 232.578 86.8598 229.081 88.098 225.296C88.178 225.086 88.228 224.926 88.278 224.786C88.328 224.646 88.918 225.006 89.968 225.396C94.678 227.146 107.778 232.396 108.148 236.776H108.238C109.958 237.516 143.348 252.406 143.448 252.456C150.118 255.536 211.748 286.746 212.828 287.316C216.258 289.156 220.168 290.216 223.778 291.656C226.068 292.666 231.468 294.996 230.918 298.296Z" fill="#B57456"/>
<path d="M69.0572 122.226C68.3696 120.005 68.1116 117.673 68.2972 115.356C68.5672 112.926 68.2972 107.546 67.2972 106.056C67.0789 105.867 66.8409 105.703 66.5872 105.566C66.5218 105.521 66.4513 105.484 66.3772 105.456C65.867 105.205 65.314 105.052 64.7472 105.006H64.5872C64.0595 104.979 63.5311 105.047 63.0272 105.206H62.8872C62.4112 105.363 61.9548 105.574 61.5272 105.836C61.5272 105.836 62.0372 111.276 61.5272 113.046C61.5272 113.046 60.3672 109.886 59.3272 109.726L58.6572 109.996C58.6572 109.996 59.5072 113.546 59.7472 115.166C60.214 117.685 61.4881 119.984 63.3772 121.716C63.3772 121.716 67.8672 124.826 69.0572 122.226Z" fill="#B57456"/>
<path d="M63.0677 105.226H62.9277C63.2689 107.648 63.4493 110.09 63.4677 112.536H63.5577C63.9382 110.093 63.7708 107.596 63.0677 105.226Z" fill="#946049"/>
<path d="M64.7879 105.006H64.6279C64.9724 107.427 65.1562 109.869 65.1779 112.316C65.1779 112.366 65.2579 112.376 65.2579 112.316C65.6242 109.873 65.464 107.381 64.7879 105.006Z" fill="#946049"/>
<path d="M66.628 105.566C66.5626 105.521 66.4921 105.484 66.418 105.456C66.7176 107.747 66.8812 110.055 66.908 112.366C66.908 112.366 66.978 112.426 66.988 112.366C67.3627 110.1 67.2398 107.78 66.628 105.566Z" fill="#946049"/>
<path d="M64.0277 204.846C64.0277 204.846 53.0277 208.266 55.8877 197.966C59.6077 184.726 64.9477 163.606 65.5577 155.296C66.1677 146.986 63.1977 119.716 63.1977 119.716L68.3877 119.056C68.3877 119.056 74.2477 145.826 74.3077 156.366C74.3677 166.906 72.3977 202.226 64.0277 204.846Z" fill="#B57456"/>
<path d="M49.7177 198.656C48.3677 202.946 44.7177 204.896 42.0977 205.786C40.0004 204.819 37.7058 204.356 35.3977 204.436H34.8777L33.6777 203.836C33.6777 203.836 34.2077 202.006 35.1177 199.626C37.2307 197.451 39.511 195.444 41.9377 193.626L49.7177 198.656Z" fill="#946049"/>
<path d="M39.7978 198.646C39.419 199.741 38.9612 200.807 38.4278 201.836C37.2178 204.186 35.7878 206.556 35.6578 209.196C35.4778 212.796 37.7378 216.476 36.5078 219.866C35.9178 221.536 34.5578 222.806 33.8478 224.416C33.8096 224.478 33.7794 224.546 33.7578 224.616C32.7578 227.076 33.4778 229.836 33.9978 232.436C34.5178 235.036 34.7078 238.036 32.9978 240.026C31.9077 241.147 30.4619 241.854 28.9078 242.026C25.4578 242.556 21.4478 241.116 20.1578 237.866C18.3178 233.276 22.5378 227.566 19.9778 223.326C19.0978 221.896 17.5878 220.966 16.5778 219.626C12.0678 213.626 18.6978 207.516 18.3278 201.346C18.1678 198.856 16.8078 196.546 16.8278 194.046C16.8278 189.596 20.5478 184.046 24.3178 181.876C26.0828 180.857 28.0848 180.32 30.1228 180.32C32.1608 180.32 34.1629 180.857 35.9278 181.876C37.8697 182.948 39.3948 184.642 40.2578 186.686C41.7478 190.226 41.1578 194.786 39.7978 198.646Z" fill="#0F0F0F"/>
<path d="M35.6572 209.226C35.4772 212.826 37.7372 216.506 36.5072 219.896C35.9172 221.566 34.5572 222.836 33.8472 224.446C32.8654 223.028 32.4416 221.297 32.6572 219.586C32.8272 218.436 33.2972 217.336 33.4672 216.186C33.6519 213.765 33.018 211.353 31.6672 209.336C30.9172 208.066 29.1972 205.866 29.7472 204.266C30.2972 202.666 32.5372 204.076 32.8172 202.086C32.8471 201.566 32.8471 201.045 32.8172 200.526C32.7653 199.67 33.0405 198.826 33.5872 198.166C33.979 197.783 34.4526 197.494 34.9723 197.321C35.4919 197.148 36.0441 197.095 36.5872 197.166C37.8102 197.285 38.9512 197.834 39.8072 198.716C39.4285 199.811 38.9706 200.877 38.4372 201.906C37.2172 204.226 35.7872 206.556 35.6572 209.226Z" fill="black"/>
<path d="M39.738 186.026C36.938 184.536 34.448 183.446 32.688 183.616C24.948 184.366 21.058 193.616 24.158 197.846C25.308 199.426 27.508 200.916 30.358 202.326C30.1219 202.427 29.9082 202.574 29.7296 202.758C29.551 202.943 29.4111 203.161 29.3179 203.4C29.2248 203.64 29.1804 203.895 29.1873 204.152C29.1941 204.409 29.2522 204.662 29.358 204.896C30.098 206.416 33.468 205.766 35.518 204.356C42.168 205.936 45.968 201.526 47.398 199.036C48.958 196.306 48.208 190.536 39.738 186.026Z" fill="#B57456"/>
<path d="M38.0574 190.226C38.0574 190.226 38.7474 189.656 37.4074 189.036C36.0674 188.416 36.0674 189.036 36.0674 189.036C36.0674 189.036 35.7774 189.536 36.8174 190.036C37.8574 190.536 38.0574 190.226 38.0574 190.226Z" fill="#0F0F0F"/>
<path d="M34.318 197.076C34.318 197.076 34.998 196.516 33.658 195.886C32.318 195.256 32.318 195.886 32.318 195.886C32.318 195.886 32.028 196.386 33.078 196.886C34.128 197.386 34.318 197.076 34.318 197.076Z" fill="#0F0F0F"/>
<path d="M38.6677 195.486C38.8177 195.086 39.5177 194.376 39.2277 193.976C38.3057 193.524 37.3317 193.189 36.3277 192.976C35.9177 192.856 35.5377 192.766 35.1677 192.666C35.1629 192.622 35.1629 192.579 35.1677 192.536C35.1728 192.437 35.1896 192.34 35.2177 192.246C36.7377 192.676 38.2177 193.246 39.7077 193.636C39.739 193.642 39.7684 193.656 39.7932 193.676C39.8181 193.697 39.8377 193.722 39.8504 193.752C39.8632 193.781 39.8687 193.813 39.8665 193.845C39.8642 193.877 39.8544 193.908 39.8377 193.936C39.5177 194.466 39.3377 195.046 39.0277 195.586C38.9077 195.806 38.5877 195.686 38.6677 195.486Z" fill="#946049"/>
<path d="M33.7373 188.736C33.7373 188.076 34.2573 187.066 35.0073 187.006C35.0392 187.005 35.0708 187.013 35.0988 187.028C35.1267 187.044 35.15 187.066 35.1663 187.094C35.1826 187.121 35.1913 187.153 35.1914 187.185C35.1916 187.217 35.1833 187.248 35.1673 187.276C35.0073 187.526 34.7573 187.676 34.5873 187.926C34.4188 188.191 34.3033 188.486 34.2473 188.796C34.2305 188.855 34.193 188.907 34.1416 188.941C34.0901 188.976 34.0281 188.99 33.9667 188.983C33.9053 188.976 33.8484 188.947 33.8064 188.902C33.7643 188.856 33.7398 188.797 33.7373 188.736Z" fill="#0F0F0F"/>
<path d="M30.4579 196.296C29.8979 195.576 30.5579 194.296 31.3279 193.976C31.4979 193.916 31.6479 194.106 31.6179 194.266C31.5279 194.636 31.2179 194.906 31.0579 195.266C30.9513 195.566 30.8841 195.878 30.8579 196.196C30.8459 196.235 30.8238 196.271 30.7937 196.3C30.7637 196.329 30.7266 196.349 30.6863 196.359C30.646 196.369 30.6038 196.369 30.5637 196.358C30.5237 196.347 30.4872 196.325 30.4579 196.296Z" fill="#0F0F0F"/>
<path d="M39.238 198.886C39.9893 198.637 40.6735 198.22 41.238 197.666C41.698 197.136 41.908 196.346 42.498 195.976C42.521 195.96 42.5471 195.95 42.5745 195.945C42.602 195.941 42.63 195.943 42.6567 195.95C42.6834 195.958 42.7081 195.971 42.729 195.99C42.75 196.008 42.7667 196.03 42.778 196.056C43.048 196.916 42.288 197.996 41.718 198.596C41.43 198.96 41.0594 199.251 40.6369 199.444C40.2144 199.637 39.752 199.727 39.288 199.706C39.1988 199.684 39.1189 199.634 39.06 199.564C39.0011 199.493 38.9663 199.406 38.9608 199.314C38.9552 199.223 38.9791 199.131 39.029 199.054C39.0789 198.977 39.1521 198.918 39.238 198.886Z" fill="#946049"/>
<path d="M22.0077 199.146C23.7877 200.876 25.8177 203.206 28.3377 203.676C33.4977 204.676 28.0577 196.776 27.6177 195.396C27.1777 194.016 27.1977 192.706 26.8777 191.396C26.6977 190.666 25.4477 189.196 25.5377 188.596C25.6277 187.996 27.0077 187.186 27.3877 186.596C28.3877 185.046 29.6777 184.506 31.0477 185.316C32.4177 186.126 33.3577 183.406 34.6977 183.846C36.0377 184.286 32.5877 182.626 32.5877 182.626L26.0877 183.776L22.3477 188.696L21.3477 194.606L22.0077 199.146Z" fill="#0F0F0F"/>
<path d="M53.0971 226.827C53.1223 237.207 52.2964 247.572 50.6269 257.826C49.7286 262.955 46.7072 272.679 43.9103 281.142C41.1135 289.604 38.531 296.765 38.531 296.765L38.2043 297.919C38.0361 298.524 37.6635 299.057 37.1457 299.434C36.6279 299.811 35.9945 300.01 35.3462 300L20.8618 299.783C20.6949 299.785 20.5321 299.733 20.3988 299.636C20.2654 299.539 20.1691 299.402 20.1248 299.247C20.0805 299.091 20.0907 298.926 20.1538 298.777C20.217 298.627 20.3296 298.502 20.4739 298.422C23.3626 296.607 30.6814 295.463 31.4572 294.91C31.9859 294.222 32.3897 293.451 32.6515 292.632C32.6515 292.632 40.8889 265.657 41.6341 257.481C42.3792 249.304 39.1434 229.115 40.7154 218.68C40.8963 217.429 41.1866 216.195 41.583 214.991C42.1051 213.139 43.1682 211.472 44.6453 210.188C45.6279 209.374 46.894 208.951 48.1873 209.005C49.5041 209.646 50.4942 211.115 51.2495 213.167C52.4744 216.52 53.0052 221.432 53.0971 226.827Z" fill="#B57456"/>
<path d="M88.7477 212.226C85.6603 219.555 81.9044 226.585 77.5277 233.226C77.3577 233.476 77.1977 233.736 77.0177 233.986C76.6577 234.536 76.2877 235.086 75.8977 235.626C75.6777 235.966 75.4477 236.299 75.2077 236.626C74.6477 237.436 74.0677 238.236 73.4677 239.036L52.7777 230.446C52.4982 227.678 51.4601 225.041 49.7777 222.826C47.4784 219.737 44.6353 217.094 41.3877 215.026C41.8991 213.148 42.9406 211.457 44.3877 210.156L44.8377 210.456C46.6698 211.695 48.6985 212.614 50.8377 213.176C52.2647 213.583 53.7701 213.63 55.22 213.314C56.6698 212.999 58.0191 212.329 59.1477 211.366C63.8377 207.276 57.9577 201.436 53.9177 198.236C54.9602 197.009 55.8531 195.663 56.5777 194.226C60.4806 196.19 64.7238 197.388 69.0777 197.756C75.4377 202.286 83.1677 208.226 88.7477 212.226Z" fill="#603CA2"/>
<path d="M234.668 290.656C232.568 293.286 227.238 290.806 225.048 289.716C221.568 287.986 218.168 285.796 214.498 284.456C213.278 284.016 212.078 283.566 210.868 283.106C203.358 280.266 195.868 277.216 188.348 274.476C187.748 274.266 84.7578 233.476 84.7578 233.476C86.1875 230.899 87.3117 228.163 88.1078 225.326C88.416 224.164 88.6333 222.981 88.7578 221.786C89.0235 220.129 88.844 218.431 88.2378 216.866C90.3537 216.645 92.4806 216.548 94.6078 216.576C100.285 216.632 105.947 217.184 111.528 218.226C124.118 220.516 141.628 232.436 149.528 238.526L151.368 239.986C158.038 245.366 167.868 251.496 184.898 259.516C194.813 264.341 204.379 269.851 213.528 276.006C216.678 278.106 218.528 279.466 218.528 279.466C218.528 279.766 221.068 280.996 221.308 281.136C222.558 281.832 223.874 282.402 225.238 282.836C227.688 283.576 237.998 286.476 234.668 290.656Z" fill="#B57456"/>
<path d="M149.527 238.496C147.377 243.626 145.197 248.266 143.097 252.416C142.517 253.556 141.947 254.676 141.387 255.746C133.327 252.366 98.9474 239.016 88.0674 234.816C89.679 232.106 91.0895 229.282 92.2874 226.366C93.5965 223.2 94.6662 219.941 95.4874 216.616C100.869 216.716 106.233 217.255 111.527 218.226C124.117 220.486 141.627 232.406 149.527 238.496Z" fill="#0F0F0F"/>
<path d="M143.118 252.416C135.348 248.856 108.118 236.846 108.118 236.846C107.798 233.066 97.9679 228.626 92.2679 226.366C91.07 229.282 89.6596 232.106 88.0479 234.816C86.3376 237.808 84.2653 240.579 81.8779 243.066C85.785 247.435 90.0865 251.436 94.7279 255.016C104.248 262.416 123.108 267.346 133.468 269.416C135.528 266.176 138.038 261.966 140.758 256.866C128.468 249.616 109.648 237.796 108.208 236.866C109.968 237.636 135.608 248.976 143.118 252.416Z" fill="#0F0F0F"/>
<path d="M207.898 284.856C201.258 281.436 194.528 278.166 187.898 274.626C181.268 271.086 143.188 252.476 143.068 252.416C142.488 253.556 141.918 254.676 141.358 255.746L140.748 256.866C143.748 258.656 146.428 260.176 148.308 261.176C157.988 266.296 206.398 284.296 207.898 284.856Z" fill="#946049"/>
<path d="M143.118 252.416C135.608 248.976 109.968 237.636 108.248 236.896C109.688 237.796 128.508 249.616 140.798 256.896L141.408 255.776C141.968 254.676 142.528 253.556 143.118 252.416Z" fill="black"/>
<path d="M105.528 236.856C101.008 237.006 97.1881 233.976 93.1081 232.506C92.7881 232.386 92.5181 232.886 92.7781 233.096C94.9138 234.666 97.2735 235.907 99.7781 236.776C101.658 237.536 103.638 238.456 105.668 237.856C105.786 237.822 105.888 237.746 105.955 237.643C106.021 237.54 106.049 237.417 106.032 237.295C106.015 237.173 105.954 237.062 105.862 236.981C105.769 236.901 105.651 236.856 105.528 236.856Z" fill="black"/>
<path d="M65.818 219.906C65.8201 219.799 65.7823 219.695 65.7122 219.615C65.642 219.534 65.5444 219.483 65.4384 219.47C65.3323 219.458 65.2255 219.485 65.1385 219.547C65.0516 219.609 64.9908 219.701 64.968 219.806C64.498 221.476 64.288 223.076 63.158 224.486C62.1267 225.77 60.6334 226.599 58.998 226.796C58.248 226.876 58.248 228.026 58.998 227.976C60.9526 227.761 62.75 226.804 64.0192 225.302C65.2884 223.8 65.9323 221.869 65.818 219.906Z" fill="#4F2C8F"/>
<path d="M74.7781 204.996C74.7289 204.865 74.6362 204.755 74.5155 204.684C74.3948 204.613 74.2535 204.586 74.1152 204.607C73.9769 204.628 73.8501 204.696 73.7559 204.8C73.6618 204.903 73.6061 205.036 73.5981 205.176C73.8166 206.696 73.4793 208.244 72.6481 209.536C71.7281 210.936 70.4481 211.246 69.1781 212.146C69.0719 212.206 68.992 212.304 68.954 212.42C68.916 212.536 68.9227 212.662 68.9728 212.773C69.0228 212.884 69.1126 212.973 69.2246 213.022C69.3365 213.07 69.4626 213.075 69.5781 213.036C70.4475 212.849 71.2717 212.493 72.0035 211.988C72.7354 211.484 73.3606 210.839 73.8435 210.093C74.3264 209.346 74.6574 208.512 74.8178 207.637C74.9782 206.763 74.9647 205.865 74.7781 204.996Z" fill="#4F2C8F"/>
<path d="M60.1573 233.536L52.7373 230.456C52.4634 227.687 51.4247 225.048 49.7373 222.836C49.7373 222.836 55.5273 225.846 60.1573 233.536Z" fill="#4F2C8F"/>
<path d="M234.667 290.656C232.567 293.286 227.237 290.806 225.047 289.716C221.567 287.986 218.167 285.796 214.497 284.456C213.277 284.016 212.077 283.566 210.867 283.106C211.867 280.796 212.737 278.396 213.547 276.006C216.697 278.106 218.547 279.466 218.547 279.466C218.547 279.766 221.087 280.996 221.327 281.136C222.577 281.832 223.894 282.402 225.257 282.836C227.687 283.576 237.997 286.476 234.667 290.656Z" fill="#0F0F0F"/>
<path d="M230.917 298.296C230.027 303.576 220.987 297.856 218.837 296.566C217.613 295.831 216.312 295.231 214.957 294.776C214.697 294.686 212.057 293.586 211.867 293.776C211.867 293.776 209.067 293.156 204.647 292.006C205.858 290.875 206.978 289.651 207.997 288.346C208.567 287.486 209.107 286.596 209.587 285.686L212.837 287.396C216.267 289.236 220.177 290.296 223.787 291.736C226.067 292.666 231.467 294.996 230.917 298.296Z" fill="#0F0F0F"/>
</g>
<defs>
<clipPath id="clip0_289_1712">
<rect width="360" height="300" fill="white"/>
</clipPath>
</defs>
</svg>
