<svg width="107" height="100" viewBox="0 0 107 100" fill="none" xmlns="http://www.w3.org/2000/svg">
<path d="M94.2919 40.8511C86.9855 25.5006 77.6448 24.9523 63.6394 25.9487C57.8579 26.3747 53.6209 25.8418 48.1954 21.972C31.9383 10.3285 0.858769 30.9061 20.0396 49.8895C34.3339 64.0305 23.304 76.7965 42.9819 81.4861C62.9004 86.2636 64.7634 69.5055 75.8518 76.4685C86.9961 83.4172 102.138 57.3177 94.2919 40.8511Z" fill="#0D0D0D"/>
<path d="M54.0168 11.0625L18.8167 72.0202C18.6272 72.3449 18.527 72.714 18.5264 73.09C18.5257 73.466 18.6247 73.8355 18.8131 74.1609C19.0015 74.4863 19.2727 74.756 19.5992 74.9425C19.9256 75.1291 20.2956 75.226 20.6716 75.2232H91.0286C91.4046 75.226 91.7746 75.1291 92.101 74.9425C92.4275 74.756 92.6987 74.4863 92.8871 74.1609C93.0755 73.8355 93.1745 73.466 93.1738 73.09C93.1732 72.714 93.073 72.3449 92.8835 72.0202L57.7264 11.0625C57.5392 10.7358 57.2691 10.4644 56.9435 10.2757C56.6178 10.0869 56.248 9.98755 55.8716 9.98755C55.4951 9.98755 55.1254 10.0869 54.7997 10.2757C54.474 10.4644 54.2039 10.7358 54.0168 11.0625Z" fill="#FBB81B"/>
<path d="M53.0478 57.223L52.0781 33.6578H59.6231L58.6534 57.223H53.0478ZM52.4997 63.5463C52.4997 61.7758 53.7644 60.3845 55.2819 60.3845H56.4623C58.0221 60.3845 59.2445 61.8178 59.2445 63.5463C59.2445 65.3168 57.9798 66.7081 56.4623 66.7081H55.2812C53.7221 66.7088 52.4997 65.2748 52.4997 63.5463Z" fill="#603CA2"/>
</svg>
