<svg width="24" height="24" viewBox="0 0 24 24" fill="none" xmlns="http://www.w3.org/2000/svg">
<path d="M18.0623 8.75067C18.7143 9.76624 19.038 10.9256 18.9969 12.0979C18.9559 13.2702 18.5523 14.4089 17.8313 15.386C17.1104 16.3632 16.1004 17.1398 14.9152 17.6279C13.7306 18.1165 12.4178 18.2975 11.125 18.1505" stroke="#B29FDF" stroke-linecap="round"/>
<path d="M5.93791 15.0503C5.2766 14.0201 4.95328 12.8423 5.00545 11.6535C5.05696 10.4643 5.48205 9.31262 6.23142 8.33204C6.98017 7.35158 8.02202 6.58189 9.23648 6.11202C10.4516 5.64268 11.7895 5.49226 13.0956 5.67812" stroke="#B29FDF" stroke-linecap="round"/>
<path d="M10 2L14 5.59991L10 9.19983" stroke="#B29FDF" stroke-miterlimit="10"/>
<path d="M14 21.8L10 18.2001L14 14.6002" stroke="#B29FDF" stroke-miterlimit="10"/>
</svg>
