<svg width="24" height="24" viewBox="0 0 24 24" fill="none" xmlns="http://www.w3.org/2000/svg">
<path d="M6.72286 11.002C6.20757 10.4868 5.37212 10.4868 4.85683 11.0021C4.34155 11.5173 4.34155 12.3528 4.85684 12.8681L10.9156 18.9269C11.4309 19.4422 12.2664 19.4422 12.7817 18.9269C13.2969 18.4116 13.2969 17.5761 12.7817 17.0608L6.72286 11.002Z" fill="white"/>
<path d="M5.79903 14.3226C5.28374 13.8073 4.4483 13.8073 3.93301 14.3226C3.41773 14.8379 3.41772 15.6733 3.93301 16.1886L7.78023 20.0358C8.29552 20.5511 9.13097 20.5511 9.64625 20.0358C10.1615 19.5206 10.1615 18.6851 9.64625 18.1698L5.79903 14.3226Z" fill="white"/>
<path d="M14.5281 11.1211L12.6621 9.25513L9.07086 12.8464L10.9369 14.7124L14.5281 11.1211Z" fill="white"/>
<path d="M16.8768 12.9652C17.392 13.4805 18.2275 13.4805 18.7428 12.9652C19.2581 12.4499 19.2581 11.6145 18.7428 11.0992L12.684 5.04042C12.1687 4.52514 11.3332 4.52513 10.818 5.04042C10.3027 5.55571 10.3027 6.39116 10.818 6.90644L16.8768 12.9652Z" fill="white"/>
<path d="M17.8006 9.64614C18.3159 10.1614 19.1513 10.1614 19.6666 9.64614C20.1819 9.13085 20.1819 8.29542 19.6666 7.78013L15.8194 3.93291C15.3041 3.41762 14.4687 3.41762 13.9534 3.9329C13.4381 4.44819 13.4381 5.28363 13.9534 5.79892L17.8006 9.64614Z" fill="white"/>
</svg>
