<svg width="24" height="24" viewBox="0 0 24 24" fill="none" xmlns="http://www.w3.org/2000/svg">
<path d="M6.57549 10.987C6.04419 10.4557 5.18277 10.4557 4.65146 10.987C4.12016 11.5183 4.12016 12.3797 4.65147 12.911L10.8986 19.1581C11.4299 19.6894 12.2913 19.6894 12.8226 19.1581C13.3539 18.6268 13.3539 17.7654 12.8226 17.2341L6.57549 10.987Z" stroke="#ABB2BA" stroke-miterlimit="10"/>
<path d="M5.88604 14.1471C5.35473 13.6158 4.49331 13.6158 3.96201 14.1471C3.4307 14.6784 3.43071 15.5398 3.96201 16.0711L7.92883 20.038C8.46013 20.5693 9.32154 20.5693 9.85284 20.038C10.3841 19.5067 10.3842 18.6452 9.85285 18.1139L5.88604 14.1471Z" stroke="#ABB2BA" stroke-miterlimit="10"/>
<path d="M17.0446 13.0121C17.5759 13.5434 18.4374 13.5434 18.9687 13.0121C19.5 12.4808 19.5 11.6193 18.9687 11.088L12.7215 4.8409C12.1902 4.3096 11.3288 4.3096 10.7975 4.8409C10.2662 5.3722 10.2662 6.23362 10.7975 6.76493L17.0446 13.0121Z" stroke="#ABB2BA" stroke-miterlimit="10"/>
<path d="M14.884 10.8498L12.96 8.92578L8.73714 13.1486L10.6612 15.0726L14.884 10.8498Z" stroke="#ABB2BA" stroke-miterlimit="10"/>
<path d="M17.7341 9.85288C18.2654 10.3842 19.1268 10.3842 19.6581 9.85289C20.1894 9.32158 20.1894 8.46016 19.6581 7.92886L15.6913 3.96204C15.16 3.43074 14.2986 3.43074 13.7673 3.96205C13.236 4.49335 13.236 5.35477 13.7673 5.88607L17.7341 9.85288Z" stroke="#ABB2BA" stroke-miterlimit="10"/>
</svg>
