<svg width="16" height="16" viewBox="0 0 16 16" fill="none" xmlns="http://www.w3.org/2000/svg">
<path fill-rule="evenodd" clip-rule="evenodd" d="M1.33301 7.99998C1.33301 11.6819 4.31778 14.6666 7.99968 14.6666C11.6816 14.6666 14.6663 11.6819 14.6663 7.99998C14.6663 4.31808 11.6816 1.33331 7.99967 1.33331C4.31778 1.33331 1.33301 4.31808 1.33301 7.99998ZM7.99966 6.99997C8.55194 6.99997 8.99966 7.44769 8.99966 7.99997L8.99966 11.2C8.99966 11.7523 8.55195 12.2 7.99966 12.2C7.44738 12.2 6.99966 11.7523 6.99966 11.2L6.99966 7.99997C6.99966 7.44769 7.44738 6.99997 7.99966 6.99997ZM6.99966 4.79997C6.99966 5.35226 7.44737 5.79997 7.99966 5.79997C8.55194 5.79997 8.99966 5.35226 8.99966 4.79997L8.99966 3.99997C8.99966 3.44769 8.55194 2.99997 7.99966 2.99997C7.44737 2.99997 6.99966 3.44769 6.99966 3.99997L6.99966 4.79997Z" fill="#B29FDF"/>
</svg>
