<svg width="24" height="24" viewBox="0 0 24 24" fill="none" xmlns="http://www.w3.org/2000/svg">
<path d="M15.8042 15.7987C14.3304 15.7987 12.9169 15.2133 11.8746 14.1712C10.8323 13.1292 10.2467 11.7158 10.2464 10.2419C10.2465 8.78154 10.8216 7.37991 11.8472 6.34023C12.8727 5.30054 14.2664 4.70639 15.7266 4.68628C14.6765 4.2325 13.5445 3.99893 12.4006 4C11.2975 3.99971 10.2052 4.21673 9.18597 4.63865C8.16678 5.06058 7.24069 5.67915 6.4606 6.45903C5.68051 7.23892 5.0617 8.16485 4.6395 9.18392C4.21731 10.203 4 11.2953 4 12.3983C3.99971 13.5016 4.21675 14.594 4.63873 15.6133C5.06071 16.6327 5.67936 17.5589 6.45935 18.3391C7.23934 19.1193 8.16539 19.7382 9.18461 20.1604C10.2038 20.5827 11.2962 20.8 12.3994 20.8C14.5736 20.7994 16.6629 19.9557 18.2277 18.4462C19.7926 16.9368 20.7111 14.8793 20.79 12.7066C20.3302 13.6358 19.6195 14.4178 18.7385 14.9642C17.8574 15.5107 16.841 15.7997 15.8042 15.7987V15.7987Z" stroke="#B29FDF" stroke-miterlimit="10"/>
<path d="M18.0425 6.11536H20.5171L18.242 9.78734H20.7887" stroke="#B29FDF" stroke-miterlimit="10"/>
<path d="M13.7822 9.45917H15.7623L13.9419 12.3983H15.9808" stroke="#B29FDF" stroke-miterlimit="10"/>
</svg>
