<svg width="36" height="32" viewBox="0 0 36 32" fill="none" xmlns="http://www.w3.org/2000/svg">
<path d="M3.90772 17.885C3.78236 17.165 3.72475 16.4348 3.73568 15.7041C3.73568 12.0695 5.1795 8.58384 7.74951 6.01384C10.3195 3.44383 13.8052 2.00001 17.4397 2.00001C19.3955 1.99724 21.3291 2.41438 23.1098 3.22324C24.8905 4.0321 26.4768 5.21382 27.7615 6.68854" stroke="white" stroke-miterlimit="10"/>
<path d="M14.9384 29.1924C12.1106 28.7149 9.52004 27.3156 7.57031 25.2124" stroke="white" stroke-miterlimit="10"/>
<path d="M31.0419 13.9956C31.1122 14.5624 31.1473 15.1331 31.1468 15.7042C31.1745 18.8353 30.1178 21.8796 28.1561 24.3201C26.1944 26.7607 23.4486 28.4472 20.3848 29.0934" stroke="white" stroke-miterlimit="10"/>
<path d="M22.6562 8.51367C23.4651 9.62748 24.6803 10.3776 26.0385 10.6014" stroke="white" stroke-miterlimit="10"/>
<path d="M12.8332 8.51367C12.8332 8.51367 11.2062 10.9804 8.16797 10.613" stroke="white" stroke-miterlimit="10"/>
<path d="M12.8333 15.704C13.7029 15.704 14.4078 14.875 14.4078 13.8525C14.4078 12.8299 13.7029 12.001 12.8333 12.001C11.9637 12.001 11.2588 12.8299 11.2588 13.8525C11.2588 14.875 11.9637 15.704 12.8333 15.704Z" fill="white"/>
<path d="M22.3499 15.704C23.2195 15.704 23.9244 14.875 23.9244 13.8525C23.9244 12.8299 23.2195 12.001 22.3499 12.001C21.4803 12.001 20.7754 12.8299 20.7754 13.8525C20.7754 14.875 21.4803 15.704 22.3499 15.704Z" fill="white"/>
<path d="M12.833 21.3779V25.2413C12.833 26.5033 13.3344 27.7137 14.2267 28.6061C15.1191 29.4985 16.3295 29.9998 17.5915 29.9998C18.8536 29.9998 20.0639 29.4985 20.9563 28.6061C21.8487 27.7137 22.35 26.5033 22.35 25.2413V21.3779" stroke="white" stroke-miterlimit="10"/>
<path d="M17.5918 20.4624V25.6874" stroke="white" stroke-miterlimit="10"/>
<path d="M10.8389 22.515C10.8389 22.515 17.6267 17.4912 24.4846 22.515" stroke="white" stroke-miterlimit="10"/>
<path d="M5.66017 25.6874C7.67204 25.6874 9.78889 24.1071 9.22907 21.7745C8.66924 19.4419 5.66017 15.1499 5.66017 15.1499C5.66017 15.1499 2.65111 19.4302 2.09129 21.7628C1.53146 24.0954 3.6483 25.6874 5.66017 25.6874Z" stroke="white" stroke-miterlimit="10"/>
<path d="M29.6192 14.2724C31.631 14.2724 33.7479 12.6921 33.188 10.3595C32.6282 8.02685 29.6192 3.73486 29.6192 3.73486C29.6192 3.73486 26.6101 8.02394 26.0503 10.3595C25.4904 12.695 27.6073 14.2724 29.6192 14.2724Z" stroke="white" stroke-miterlimit="10"/>
</svg>
