<svg width="32" height="32" viewBox="0 0 32 32" fill="none" xmlns="http://www.w3.org/2000/svg">
<path d="M16 30C23.732 30 30 23.732 30 16C30 8.26801 23.732 2 16 2C8.26801 2 2 8.26801 2 16C2 23.732 8.26801 30 16 30Z" stroke="white" stroke-miterlimit="10"/>
<path d="M6.46191 10.9543C6.46191 10.9543 8.12404 8.43428 11.2279 8.8096" stroke="white" stroke-miterlimit="10"/>
<path d="M25.5404 10.9543C25.5404 10.9543 23.8782 8.43428 20.7744 8.8096" stroke="white" stroke-miterlimit="10"/>
<path d="M13.3127 14.4956C13.0314 15.0135 12.6157 15.4459 12.1093 15.7473C11.6029 16.0488 11.0246 16.208 10.4353 16.2084C9.86229 16.2079 9.29946 16.0572 8.80292 15.7713C8.30639 15.4854 7.89351 15.0743 7.60547 14.579" stroke="white" stroke-miterlimit="10"/>
<path d="M24.3966 14.4956C24.1154 15.0135 23.6996 15.4459 23.1932 15.7473C22.6868 16.0488 22.1085 16.208 21.5192 16.2084C20.9467 16.2074 20.3845 16.0564 19.8885 15.7706C19.3926 15.4847 18.9802 15.0739 18.6924 14.579" stroke="white" stroke-miterlimit="10"/>
<path d="M20.2331 21.9248C19.8173 22.6936 19.2013 23.3356 18.4504 23.7829C17.6995 24.2302 16.8416 24.4661 15.9676 24.4657C15.1176 24.4664 14.2823 24.2436 13.5457 23.8196C12.809 23.3956 12.1968 22.7853 11.7705 22.0499" stroke="white" stroke-miterlimit="10"/>
</svg>
