<svg width="35" height="32" viewBox="0 0 35 32" fill="none" xmlns="http://www.w3.org/2000/svg">
<path d="M29.7915 13.5932C29.9456 14.3859 30.0155 15.1926 30 16C30 19.713 28.525 23.274 25.8995 25.8995C23.274 28.525 19.713 30 16 30C12.287 30 8.72602 28.525 6.10051 25.8995C3.475 23.274 2 19.713 2 16C2 12.287 3.475 8.72602 6.10051 6.10051C8.72602 3.475 12.287 2 16 2C20.1523 2 23.5749 3.47447 26.1277 6.34596" stroke="white" stroke-miterlimit="10"/>
<path d="M6.45898 10.9543C6.45898 10.9543 8.12111 8.43428 11.2249 8.8096" stroke="white" stroke-miterlimit="10"/>
<path d="M24.501 9.93854C24.0023 9.48321 23.4078 9.14544 22.7614 8.95007C22.115 8.7547 21.433 8.70671 20.7656 8.8096" stroke="white" stroke-miterlimit="10"/>
<path d="M18.3027 14.496C18.506 14.0038 18.8467 13.5806 19.2841 13.2769C19.7214 12.9732 20.237 12.8018 20.7691 12.7832C21.2846 12.8002 21.785 12.9616 22.2131 13.2492C22.6413 13.5367 22.9801 13.9388 23.1908 14.4096" stroke="white" stroke-miterlimit="10"/>
<path d="M8.80078 14.496C9.00438 14.004 9.34514 13.581 9.78243 13.2774C10.2197 12.9737 10.7351 12.8021 11.2672 12.7832C11.783 12.8003 12.2837 12.9618 12.7123 13.2493C13.141 13.5368 13.4803 13.9388 13.6918 14.4096" stroke="white" stroke-miterlimit="10"/>
<path d="M25.404 18.3623C24.2125 18.818 21.3321 19.4257 15.7917 19.4257C10.7844 19.4257 7.88315 18.8597 6.55762 18.4427" stroke="white" stroke-miterlimit="10"/>
<path d="M6.55176 18.6542C6.80197 19.6193 7.776 25.9134 15.9973 25.9134C24.433 25.9134 25.1539 19.3274 25.4041 18.3623" stroke="white" stroke-miterlimit="10"/>
<path d="M28.1616 13.9355C30.2199 13.9355 32.3795 12.321 31.8075 9.93807C31.2356 7.55509 28.1616 3.17041 28.1616 3.17041C28.1616 3.17041 25.0875 7.55211 24.5156 9.93807C23.9437 12.324 26.0914 13.9355 28.1616 13.9355Z" stroke="white" stroke-miterlimit="10"/>
</svg>
