<svg width="24" height="24" viewBox="0 0 24 24" fill="none" xmlns="http://www.w3.org/2000/svg">
<path d="M6.29289 17.2929C5.90237 17.6834 5.90237 18.3166 6.29289 18.7071C6.68342 19.0976 7.31658 19.0976 7.70711 18.7071L6.29289 17.2929ZM13 12L13.7071 12.7071L14.4142 12L13.7071 11.2929L13 12ZM7.70711 5.29289C7.31658 4.90237 6.68342 4.90237 6.29289 5.29289C5.90237 5.68342 5.90237 6.31658 6.29289 6.70711L7.70711 5.29289ZM7.70711 18.7071L13.7071 12.7071L12.2929 11.2929L6.29289 17.2929L7.70711 18.7071ZM13.7071 11.2929L7.70711 5.29289L6.29289 6.70711L12.2929 12.7071L13.7071 11.2929Z" fill="white"/>
<path d="M18 17L18 7" stroke="white" stroke-width="2" stroke-linecap="round"/>
</svg>
