<svg width="24" height="24" viewBox="0 0 24 24" fill="none" xmlns="http://www.w3.org/2000/svg">
<path d="M5 14L5.35355 14.3536L5 14.7071L4.64645 14.3536L5 14ZM9.35355 10.3536L5.35355 14.3536L4.64645 13.6464L8.64645 9.64645L9.35355 10.3536ZM4.64645 14.3536L0.646446 10.3536L1.35355 9.64645L5.35355 13.6464L4.64645 14.3536Z" fill="white"/>
<path d="M8.5 18.0622C9.87363 18.8552 11.4759 19.1583 13.0443 18.9217C14.6127 18.685 16.0542 17.9228 17.1327 16.7598C18.2112 15.5967 18.8628 14.1019 18.9806 12.5202C19.0985 10.9384 18.6757 9.36351 17.7814 8.05349C16.8872 6.74347 15.5746 5.77598 14.0586 5.30953C12.5426 4.84308 10.9131 4.90532 9.43709 5.48605C7.96109 6.06679 6.72607 7.13158 5.93436 8.506C5.14265 9.88042 4.84119 11.483 5.07937 13.0511" stroke="white" stroke-linecap="round"/>
</svg>
