<svg width="24" height="24" viewBox="0 0 24 24" fill="none" xmlns="http://www.w3.org/2000/svg">
<path d="M7.33719 11.4545C6.84131 10.9586 6.03731 10.9586 5.54143 11.4545C5.04555 11.9504 5.04555 12.7544 5.54143 13.2502L11.3721 19.0809C11.868 19.5768 12.672 19.5768 13.1678 19.0809C13.6637 18.585 13.6637 17.781 13.1679 17.2851L7.33719 11.4545Z" stroke="#B29FDF" stroke-miterlimit="10"/>
<path d="M6.69363 14.404C6.19775 13.9081 5.39376 13.9081 4.89787 14.404C4.40199 14.8999 4.40199 15.7039 4.89788 16.1998L8.60024 19.9021C9.09612 20.398 9.9001 20.398 10.396 19.9021C10.8919 19.4062 10.8919 18.6022 10.396 18.1064L6.69363 14.404Z" stroke="#B29FDF" stroke-miterlimit="10"/>
<path d="M17.1081 13.3447C17.604 13.8406 18.408 13.8406 18.9039 13.3447C19.3998 12.8488 19.3998 12.0448 18.9039 11.549L13.0732 5.7183C12.5773 5.22242 11.7734 5.22242 11.2775 5.7183C10.7816 6.21418 10.7816 7.01818 11.2775 7.51406L17.1081 13.3447Z" stroke="#B29FDF" stroke-miterlimit="10"/>
<path d="M15.0917 11.3266L13.2959 9.53082L9.3546 13.4721L11.1504 15.2679L15.0917 11.3266Z" stroke="#B29FDF" stroke-miterlimit="10"/>
<path d="M17.7517 10.396C18.2476 10.8919 19.0515 10.8919 19.5474 10.396C20.0433 9.90011 20.0433 9.09611 19.5474 8.60023L15.8451 4.89787C15.3492 4.40199 14.5452 4.40199 14.0493 4.89788C13.5534 5.39376 13.5534 6.19774 14.0493 6.69363L17.7517 10.396Z" stroke="#B29FDF" stroke-miterlimit="10"/>
</svg>
