<svg width="24" height="24" viewBox="0 0 24 24" fill="none" xmlns="http://www.w3.org/2000/svg">
<path fill-rule="evenodd" clip-rule="evenodd" d="M9.11486 4.5C7.55178 4.5 6.05271 5.12087 4.94736 6.22605C3.9555 7.21776 3.35355 8.52657 3.24024 9.91424C3.08798 9.94053 2.93873 9.98362 2.79528 10.043C2.54074 10.1483 2.30943 10.3027 2.11459 10.4975C1.91975 10.6922 1.76518 10.9235 1.65973 11.178C1.55428 11.4324 1.5 11.7052 1.5 11.9807C1.5 12.5371 1.72103 13.0707 2.11445 13.4641C2.50787 13.8575 3.04147 14.0786 3.59785 14.0786H3.77108V13.0786H3.59785C3.30669 13.0786 3.02744 12.9629 2.82156 12.757C2.61567 12.5511 2.5 12.2719 2.5 11.9807C2.5 11.8366 2.52839 11.6939 2.58356 11.5608C2.63873 11.4276 2.71958 11.3067 2.82152 11.2048C2.92344 11.1029 3.04445 11.0221 3.17761 10.967C3.31078 10.9119 3.45349 10.8836 3.5976 10.8837L3.59785 10.3933H3.59788L3.59912 10.8837C3.74342 10.8833 3.88637 10.9114 4.01979 10.9664C4.15321 11.0213 4.27448 11.1021 4.37664 11.204C4.47882 11.3059 4.55988 11.427 4.61518 11.5602C4.67048 11.6935 4.69895 11.8364 4.69895 11.9807V14.8607V15.3607H5.19895H12.0328C12.0428 16.1402 12.2372 16.8752 12.5745 17.524H3.99645C3.84826 17.524 3.70613 17.4652 3.60134 17.3604C3.49655 17.2556 3.43768 17.1135 3.43768 16.9653V14.2731H2.43768V16.9653C2.43768 17.3787 2.60191 17.7752 2.89423 18.0675C3.18656 18.3598 3.58304 18.524 3.99645 18.524H5.79919L5.5608 19.5428L6.53449 19.7706L6.82621 18.524H13.1014L13.3931 19.7706L14.3668 19.5428L14.3377 19.4183C15.0733 19.8707 15.9393 20.1316 16.8662 20.1316C19.5358 20.1316 21.7 17.9674 21.7 15.2978C21.7 12.94 20.0119 10.9765 17.7784 10.55C17.4593 10.1791 17.0318 9.97484 16.5626 9.90824C16.4482 8.52287 15.8468 7.21643 14.8565 6.22613C13.7513 5.12091 12.2522 4.5 10.6892 4.5H9.11486ZM12.3549 13.5581C12.2555 13.8157 12.1775 14.084 12.1232 14.3607H5.69895V13.5581H12.3549ZM14.162 11.2906C13.6607 11.6296 13.2265 12.06 12.8833 12.5581H5.69895V11.9807C5.69895 11.7049 5.64454 11.4317 5.53882 11.177C5.43309 10.9222 5.27814 10.6908 5.08286 10.496C4.88756 10.3012 4.65576 10.1468 4.40072 10.0418C4.34724 10.0197 4.29296 9.99995 4.23802 9.98246C4.33483 8.83512 4.83398 7.75353 5.65441 6.93321C6.57223 6.01553 7.81697 5.5 9.11486 5.5H10.6892C11.987 5.5 13.2317 6.01555 14.1494 6.93323C14.9656 7.7495 15.4637 8.82444 15.5639 9.96539C14.8799 10.1424 14.292 10.6015 14.162 11.2906ZM16.8662 11.464C14.7489 11.464 13.0324 13.1805 13.0324 15.2978C13.0324 17.4152 14.7489 19.1316 16.8662 19.1316C18.9836 19.1316 20.7 17.4152 20.7 15.2978C20.7 13.1805 18.9836 11.464 16.8662 11.464ZM18.7388 16.632L17.366 15.2591V12.9601H16.366V15.4662V15.6733L16.5124 15.8197L18.0317 17.3391L18.7388 16.632Z" fill="#B29FDF"/>
</svg>
