<svg width="24" height="24" viewBox="0 0 24 24" fill="none" xmlns="http://www.w3.org/2000/svg">
<path d="M5.36711 11.5227C4.86679 11.0224 4.05563 11.0224 3.55532 11.5227C3.055 12.023 3.055 12.8342 3.55531 13.3345L9.43805 19.2172C9.93836 19.7175 10.7495 19.7175 11.2498 19.2172C11.7502 18.7169 11.7502 17.9057 11.2498 17.4054L5.36711 11.5227Z" stroke="#B29FDF" stroke-miterlimit="10"/>
<path d="M4.71769 14.4973C4.21738 13.997 3.40621 13.997 2.90589 14.4973C2.40558 14.9976 2.40558 15.8088 2.9059 16.3091L6.64133 20.0445C7.14164 20.5448 7.9528 20.5448 8.45312 20.0445C8.95343 19.5442 8.95343 18.733 8.45312 18.2327L4.71769 14.4973Z" stroke="#B29FDF" stroke-miterlimit="10"/>
<path d="M13.1907 11.3932L11.3789 9.58142L7.4024 13.5579L9.21419 15.3697L13.1907 11.3932Z" stroke="#B29FDF" stroke-miterlimit="10"/>
<path d="M15.8741 10.4531C16.3744 10.9535 17.1856 10.9535 17.6859 10.4531C18.1862 9.95283 18.1862 9.14166 17.6859 8.64134L13.9505 4.90592C13.4502 4.4056 12.639 4.40561 12.1387 4.90592C11.6384 5.40623 11.6384 6.2174 12.1387 6.71771L15.8741 10.4531Z" stroke="#B29FDF" stroke-miterlimit="10"/>
<path d="M16.4955 20.4196C19.0938 20.4196 21.2 18.3133 21.2 15.7151C21.2 13.1168 19.0938 11.0106 16.4955 11.0106C13.8973 11.0106 11.791 13.1168 11.791 15.7151C11.791 18.3133 13.8973 20.4196 16.4955 20.4196Z" stroke="#B29FDF" stroke-miterlimit="10"/>
<path d="M16.4337 11.0132L11.1545 5.73403C11.0356 5.61495 10.8944 5.52048 10.739 5.45603C10.5835 5.39157 10.4169 5.3584 10.2486 5.3584C10.0803 5.3584 9.91369 5.39157 9.75824 5.45603C9.60279 5.52048 9.46158 5.61495 9.34268 5.73403C9.10261 5.97441 8.96777 6.30024 8.96777 6.63996C8.96777 6.97968 9.10261 7.30552 9.34268 7.54589L13.7168 11.92C14.5053 11.341 15.4555 11.0238 16.4337 11.0132V11.0132Z" stroke="#B29FDF" stroke-miterlimit="10"/>
<path d="M16.4951 13.1783V15.8988L18.1444 17.5481" stroke="#B29FDF" stroke-miterlimit="10"/>
</svg>
