<svg width="24" height="24" viewBox="0 0 24 24" fill="none" xmlns="http://www.w3.org/2000/svg">
<path fill-rule="evenodd" clip-rule="evenodd" d="M4.1001 12C4.1001 7.63693 7.63705 4.09998 12.0001 4.09998C16.3631 4.09998 19.9001 7.63693 19.9001 12C19.9001 16.363 16.3631 19.9 12.0001 19.9C7.63705 19.9 4.1001 16.363 4.1001 12ZM12.0001 3.09998C7.08476 3.09998 3.1001 7.08464 3.1001 12C3.1001 16.9153 7.08476 20.9 12.0001 20.9C16.9154 20.9 20.9001 16.9153 20.9001 12C20.9001 7.08464 16.9154 3.09998 12.0001 3.09998ZM12.5001 7.46892H11.5001V12.5334L14.5914 15.6247L15.2985 14.9176L12.5001 12.1192V7.46892Z" fill="#B29FDF"/>
</svg>
