<svg width="110" height="100" viewBox="0 0 110 100" fill="none" xmlns="http://www.w3.org/2000/svg">
<path d="M51.2448 6.49396C45.3637 9.74817 38.9047 15.5266 31.2459 25.32C23.587 35.1133 8.59891 32.3432 8.04709 48.8371C6.75456 87.6417 32.2977 94.6111 56.7297 92.7208C73.3955 91.4338 87.2541 81.3446 93.6426 71.24C106.272 51.2691 105.831 33.7494 94.05 20.917C82.2691 8.08457 68.1254 -2.83835 51.2448 6.49396Z" fill="#2E3338"/>
<path d="M31.2694 47.0038C28.6695 44.4038 24.4541 44.4038 21.8542 47.0038C19.2542 49.6037 19.2542 53.8191 21.8541 56.4191L52.4248 86.9897C55.0248 89.5897 59.2402 89.5897 61.8401 86.9897C64.4401 84.3898 64.4401 80.1744 61.8401 77.5744L31.2694 47.0038Z" stroke="#5C6570" stroke-miterlimit="10"/>
<path d="M27.8998 62.4657C25.2999 59.8657 21.0845 59.8657 18.4845 62.4657C15.8845 65.0657 15.8845 69.281 18.4845 71.881L37.8963 91.2928C40.4963 93.8927 44.7116 93.8928 47.3116 91.2928C49.9115 88.6928 49.9116 84.4774 47.3116 81.8775L27.8998 62.4657Z" stroke="#5C6570" stroke-miterlimit="10"/>
<path d="M71.9314 46.3333L62.5161 36.918L41.8515 57.5825L51.2668 66.9979L71.9314 46.3333Z" stroke="#5C6570" stroke-miterlimit="10"/>
<path d="M82.5055 56.9083C85.1054 59.5083 89.3208 59.5083 91.9207 56.9084C94.5207 54.3084 94.5207 50.093 91.9208 47.493L61.3501 16.9224C58.7501 14.3224 54.5347 14.3224 51.9348 16.9224C49.3348 19.5224 49.3348 23.7377 51.9348 26.3377L82.5055 56.9083Z" stroke="#5C6570" stroke-miterlimit="10"/>
<path d="M85.8771 41.4483C88.477 44.0483 92.6924 44.0483 95.2924 41.4484C97.8923 38.8484 97.8923 34.633 95.2923 32.0331L75.8806 12.6213C73.2806 10.0213 69.0652 10.0213 66.4653 12.6213C63.8653 15.2212 63.8653 19.4366 66.4653 22.0366L85.8771 41.4483Z" stroke="#5C6570" stroke-miterlimit="10"/>
<path d="M41.8576 7.05988C41.8576 5.92224 40.9353 5 39.7977 5C38.66 5 37.7378 5.92224 37.7378 7.05988V16.5437C37.7378 17.6813 38.66 18.6035 39.7977 18.6035C40.9353 18.6035 41.8576 17.6813 41.8576 16.5437V7.05988Z" fill="#454C54"/>
<path d="M35.0599 9.74202C33.9222 9.74202 33 10.6642 33 11.8019C33 12.9395 33.9222 13.8618 35.0599 13.8618H44.5436C45.6813 13.8618 46.6035 12.9395 46.6035 11.8019C46.6035 10.6642 45.6813 9.74202 44.5436 9.74202H35.0599Z" fill="#454C54"/>
<path d="M8.64867 20.8485C8.64867 20.3799 8.26878 20 7.80016 20C7.33155 20 6.95166 20.3799 6.95166 20.8485V24.755C6.95166 25.2236 7.33155 25.6035 7.80016 25.6035C8.26878 25.6035 8.64867 25.2236 8.64867 24.755V20.8485Z" fill="#454C54"/>
<path d="M5.8485 21.9534C5.37989 21.9534 5 22.3333 5 22.8019C5 23.2705 5.37989 23.6504 5.8485 23.6504H9.75503C10.2236 23.6504 10.6035 23.2705 10.6035 22.8019C10.6035 22.3333 10.2236 21.9534 9.75503 21.9534H5.8485Z" fill="#454C54"/>
<path d="M27.5 33C29.433 33 31 31.433 31 29.5C31 27.567 29.433 26 27.5 26C25.567 26 24 27.567 24 29.5C24 31.433 25.567 33 27.5 33Z" stroke="#454C54" stroke-miterlimit="10"/>
</svg>
